<svg width="24" height="18" viewBox="0 0 24 18" fill="none" xmlns="http://www.w3.org/2000/svg">
<path d="M12 -4C11.0111 -4 10.0444 -3.70676 9.22215 -3.15735C8.3999 -2.60794 7.75904 -1.82705 7.3806 -0.913417C7.00216 0.000213146 6.90315 1.00555 7.09607 1.97545C7.289 2.94536 7.7652 3.83627 8.46447 4.53553C9.16373 5.2348 10.0546 5.711 11.0245 5.90393C11.9945 6.09685 12.9998 5.99784 13.9134 5.6194C14.827 5.24096 15.6079 4.6001 16.1573 3.77785C16.7068 2.95561 17 1.98891 17 1C17 -0.326082 16.4732 -1.59785 15.5355 -2.53553C14.5979 -3.47322 13.3261 -4 12 -4ZM12 4C11.4067 4 10.8266 3.82405 10.3333 3.49441C9.83994 3.16476 9.45542 2.69623 9.22836 2.14805C9.0013 1.59987 8.94189 0.996672 9.05764 0.414729C9.1734 -0.167214 9.45912 -0.701763 9.87868 -1.12132C10.2982 -1.54088 10.8328 -1.8266 11.4147 -1.94236C11.9967 -2.05811 12.5999 -1.9987 13.1481 -1.77164C13.6962 -1.54458 14.1648 -1.16006 14.4944 -0.666711C14.8241 -0.173363 15 0.406656 15 1C15 1.79565 14.6839 2.55871 14.1213 3.12132C13.5587 3.68393 12.7956 4 12 4ZM21 15V14C21 12.1435 20.2625 10.363 18.9497 9.05025C17.637 7.7375 15.8565 7 14 7H10C8.14348 7 6.36301 7.7375 5.05025 9.05025C3.7375 10.363 3 12.1435 3 14V15H5V14C5 12.6739 5.52678 11.4021 6.46447 10.4645C7.40215 9.52678 8.67392 9 10 9H14C15.3261 9 16.5979 9.52678 17.5355 10.4645C18.4732 11.4021 19 12.6739 19 14V15H21Z" fill="#FCFFE6"/>
</svg>
